<?xml version="1.0" standalone="no"?>
<!DOCTYPE svg PUBLIC "-//W3C//DTD SVG 20010904//EN"
 "http://www.w3.org/TR/2001/REC-SVG-20010904/DTD/svg10.dtd">
<svg version="1.0" xmlns="http://www.w3.org/2000/svg"
 width="320.000000pt" height="320.000000pt" viewBox="0 0 320.000000 320.000000"
 preserveAspectRatio="xMidYMid meet">
<metadata>
Created by potrace 1.14, written by Peter Selinger 2001-2017
</metadata>
<g transform="translate(0.000000,320.000000) scale(0.100000,-0.100000)"
fill="#000000" stroke="none">
<path d="M490 3120 c-13 -8 -15 -165 -15 -1314 0 -894 3 -1307 10 -1310 14 -5
136 -5 150 0 7 3 10 413 10 1305 0 1276 0 1301 -19 1315 -22 16 -113 19 -136
4z"/>
<path d="M780 3120 c-13 -8 -15 -169 -15 -1307 0 -1483 -11 -1333 96 -1326 35
2 66 9 70 15 4 6 7 65 7 132 1 67 1 256 1 421 l1 300 63 -65 c34 -36 87 -93
117 -126 90 -98 289 -310 499 -533 l133 -141 120 0 121 0 -49 53 c-47 52 -120
129 -244 263 -36 38 -117 126 -180 194 -63 68 -165 176 -226 240 -62 63 -145
151 -185 194 -41 44 -93 99 -115 124 -28 30 -40 50 -37 63 5 19 57 69 73 69 7
0 81 -77 250 -260 34 -36 220 -236 288 -309 19 -20 61 -65 95 -101 33 -36 94
-101 136 -145 42 -45 135 -143 206 -219 72 -77 136 -145 143 -153 10 -9 46
-13 134 -13 l120 0 -31 35 c-17 20 -57 64 -90 98 -32 34 -73 78 -91 97 -18 19
-57 62 -89 95 -31 33 -115 123 -186 200 -72 77 -155 167 -185 199 -30 33 -107
114 -171 180 -165 173 -199 210 -199 219 0 17 56 77 72 77 9 0 60 -48 115
-107 54 -59 114 -123 133 -143 19 -20 87 -92 150 -160 63 -68 126 -135 140
-150 47 -50 278 -295 310 -330 18 -19 84 -90 148 -158 63 -67 120 -129 126
-137 9 -13 33 -15 133 -13 l122 3 -51 55 c-48 52 -229 245 -315 336 -49 52
-251 268 -293 314 -125 135 -253 273 -300 324 -30 32 -104 109 -163 170 -60
61 -112 118 -117 126 -6 11 11 35 62 90 39 41 103 109 142 151 39 42 118 127
176 189 58 63 153 164 212 225 112 116 120 124 293 311 61 65 140 150 176 189
36 38 83 90 104 113 l39 44 -123 -4 -122 -3 -91 -95 c-50 -52 -120 -126 -156
-165 -37 -38 -105 -111 -152 -160 -79 -84 -145 -155 -289 -311 -31 -33 -111
-118 -177 -190 -67 -71 -143 -153 -169 -181 -26 -29 -52 -53 -58 -53 -12 0
-77 68 -77 80 0 5 12 22 28 38 15 16 74 79 132 142 58 62 120 129 139 149 187
200 269 287 327 346 38 39 123 129 189 200 66 71 129 139 140 150 54 57 57 54
-72 54 l-118 1 -85 -88 c-122 -126 -260 -272 -375 -397 -87 -95 -154 -167
-269 -289 -15 -17 -81 -87 -145 -156 -64 -68 -149 -159 -190 -202 -41 -43 -80
-87 -88 -98 -28 -40 -38 -24 -38 59 0 73 3 81 31 115 34 39 184 200 659 705
44 47 103 108 130 136 47 48 138 146 179 193 l18 21 -107 0 c-117 0 -167 -15
-197 -61 -18 -27 -9 -17 -342 -372 -138 -147 -219 -233 -308 -328 -29 -32 -56
-58 -58 -58 -3 0 -5 178 -5 396 0 379 -1 396 -20 410 -21 16 -112 19 -135 4z
m503 -1252 l29 -36 -33 -41 c-18 -23 -37 -41 -44 -41 -6 0 -28 18 -49 39 l-38
39 38 41 c20 23 44 41 52 39 8 -2 28 -20 45 -40z"/>
<path d="M571 364 c-40 -17 -69 -59 -77 -110 -8 -54 7 -95 48 -129 25 -21 40
-25 93 -25 40 0 67 5 72 13 12 19 12 116 -1 124 -16 10 -76 11 -76 1 0 -4 0
-11 -1 -15 0 -5 10 -10 23 -13 17 -5 22 -13 23 -38 1 -39 -25 -50 -79 -32 -36
11 -66 57 -66 100 0 60 55 105 124 99 48 -5 69 16 32 31 -33 12 -77 10 -115
-6z"/>
<path d="M776 365 c-10 -10 -13 -45 -12 -137 1 -123 2 -125 36 -119 5 0 9 16
8 34 -1 60 1 67 26 67 30 0 41 -14 55 -67 11 -40 32 -56 45 -34 3 5 -3 35 -14
66 -18 53 -19 60 -4 76 24 27 24 68 0 96 -17 20 -33 26 -74 28 -34 2 -57 -1
-66 -10z m102 -38 c16 -13 15 -52 -2 -66 -8 -7 -27 -11 -43 -9 -25 3 -28 7
-29 38 0 19 4 40 8 46 9 13 45 8 66 -9z"/>
<path d="M1062 371 c-7 -4 -28 -54 -47 -111 -19 -58 -39 -112 -43 -120 -5 -8
-7 -21 -5 -27 9 -24 33 -13 47 22 29 68 100 68 125 -1 11 -31 29 -43 43 -28 5
4 -51 182 -77 246 -8 20 -28 29 -43 19z m38 -144 c-4 -5 -18 -7 -32 -5 -24 3
-24 3 -10 53 l15 50 17 -45 c10 -25 15 -49 10 -53z"/>
<path d="M1239 367 c-10 -10 -14 -45 -14 -138 0 -117 1 -124 20 -124 16 0 20
7 21 37 1 45 18 68 50 68 29 0 73 38 79 68 6 35 -11 69 -42 85 -39 19 -97 21
-114 4z m109 -41 c2 -3 5 -17 5 -32 0 -31 -26 -54 -60 -54 -21 0 -23 5 -23 48
0 27 3 51 6 54 6 6 62 -7 72 -16z"/>
<path d="M1445 369 c-4 -5 -7 -58 -7 -117 0 -156 -1 -154 20 -150 13 3 17 14
18 57 0 34 6 56 15 62 18 11 61 11 92 0 22 -9 24 -14 21 -61 -2 -38 1 -53 12
-57 8 -3 18 -3 21 1 9 9 10 232 1 256 -12 32 -35 13 -35 -28 -1 -74 0 -72 -47
-72 -55 0 -76 19 -76 70 0 37 -22 61 -35 39z"/>
<path d="M1704 369 c-8 -14 -9 -257 -1 -265 3 -4 13 -4 21 -1 21 8 22 263 1
271 -8 3 -17 0 -21 -5z"/>
<path d="M1835 371 c-30 -13 -47 -37 -47 -67 0 -28 34 -70 66 -80 33 -10 55
-34 51 -56 -6 -30 -11 -33 -65 -33 -27 0 -51 -3 -55 -7 -9 -9 24 -25 55 -28
47 -4 61 0 85 26 45 48 27 97 -50 134 -47 23 -57 46 -30 73 9 10 27 13 51 10
31 -4 35 -2 32 14 -4 20 -58 28 -93 14z"/>
<path d="M1968 369 c-18 -11 2 -29 32 -29 16 0 32 -6 37 -12 4 -7 7 -60 8
-118 0 -98 1 -105 20 -105 19 0 20 7 20 105 1 113 7 134 36 127 10 -3 26 1 35
8 14 10 15 13 3 21 -16 10 -175 13 -191 3z"/>
<path d="M2203 373 c-10 -4 -13 -39 -13 -133 0 -71 3 -131 8 -133 4 -3 36 -7
72 -8 60 -4 65 -2 65 16 0 17 -7 20 -40 20 -49 0 -65 10 -65 38 0 37 17 52 57
52 28 0 39 5 41 18 3 14 -4 17 -43 17 -51 0 -65 16 -47 55 8 18 19 23 44 23
53 0 58 1 58 17 0 8 -6 15 -12 16 -48 4 -115 5 -125 2z"/>
</g>
</svg>
