<?xml version="1.0" encoding="utf-8"?>
<!-- Generator: Adobe Illustrator 26.5.0, SVG Export Plug-In . SVG Version: 6.00 Build 0)  -->
<svg version="1.1" id="Calque_1" xmlns="http://www.w3.org/2000/svg" xmlns:xlink="http://www.w3.org/1999/xlink" x="0px" y="0px"
	 viewBox="0 0 1920 500" style="enable-background:new 0 0 1920 500;" xml:space="preserve">
<style type="text/css">
	.st0{font-family:'LEMONMILK-Regular';}
	.st1{font-size:39.1009px;}
</style>
<g>
	<g>
		<text transform="matrix(1 0 0 1 348.248 157.5967)" class="st0 st1">Parlon en !</text>
		<text transform="matrix(1 0 0 1 1346.0449 153.0625)" class="st0 st1">lançons !</text>
		<text transform="matrix(1 0 0 1 818.8848 157.5586)" class="st0 st1">Concevons !</text>
	</g>
	<path d="M381.5,283c0.5-2,0.8-4,1.4-5.9c4.2-14.5,17.4-24.5,32.4-24.6c6.8-0.1,13.5,0,20.5,0c0,7.1-0.4,14.2,1.9,21.2
		c-1.9,0-3.6,0-5.2,0c-6.5,0-13.1,0-19.6,0c-3.4,0-5.9,2.3-5.8,5.5c0,3.1,2.5,5.3,5.8,5.3c9.4,0,18.8,0,28.2,0
		c1.1,0,1.7,0.4,2.3,1.2c2.5,3.2,5.2,6.4,7.9,9.6c-0.4,0-1,0-1.6,0c-12.3,0-24.6,0-36.8,0c-4.3,0-7.1,3.9-5.4,7.5
		c1,2.2,2.9,3.2,5.3,3.2c9.6,0,19.2,0,28.8,0c8.9,0,17.7,0.1,26.6,0c1.5,0,3-0.5,4.5-0.8c0.3-0.1,0.7-0.1,1-0.1
		c4.4,0.2,8.8,0.3,13.3,0.6c0.8,0,1.7,0.4,2.3,1c3.4,3.3,6.8,6.6,10,10c0.6,0.6,0.9,1.7,0.8,2.5c-2.1,17.6-16.4,30.3-34.2,30.3
		c-3.3,0-6.6,0.1-9.9,0c-1.5-0.1-2.4,0.5-3.4,1.5c-9.2,9.3-18.5,18.6-27.8,27.8c-1.2,1.2-2.6,2.1-3.9,3.1c-1,0-1.9,0-2.9,0
		c-3.1-1.4-4.1-3.9-4-7.2c0.2-7.7,0.1-15.4,0.1-23.2c0-0.6,0-1.3,0-1.9c-0.5-0.1-0.8-0.1-1.1-0.1c-15-1.6-26.4-11.1-30.3-24.9
		c-0.5-1.8-0.8-3.7-1.3-5.6C381.5,307,381.5,295,381.5,283z M441.1,327.6c9.5,0,19,0,28.6,0c3.2,0,5.6-2.3,5.6-5.3
		c0-3.1-2.4-5.5-5.7-5.5c-19,0-37.9,0-56.9,0c-1.1,0-2.3,0.3-3.2,0.9c-2,1.1-2.9,3.6-2.3,5.7c0.7,2.5,2.7,4.1,5.4,4.1
		C422.1,327.6,431.6,327.6,441.1,327.6z"/>
	<path d="M532.8,294.9c0,0.8,0,1.5,0,2.1c0,7.9,0,15.8,0,23.7c0,2.7-0.7,4.9-3.3,6c-2.7,1.2-4.8,0.1-6.7-1.9
		c-3.9-4-7.9-7.9-11.8-11.8c-5.6-5.6-11.2-11.2-16.8-16.8c-0.9-1-1.9-1.4-3.3-1.4c-5,0-10,0.1-14.9-0.4
		c-14.7-1.5-27.5-14.4-29.2-29.1c-0.2-1.9-0.3-3.8-0.3-5.7c0-9.1,0-18.2,0-27.3c0-19.3,15.1-34.4,34.4-34.5c16.7,0,33.4,0,50.1,0
		c19.3,0,34.4,15.1,34.4,34.4c0,9.1,0,18.2,0,27.3c0,19-12.6,33.1-31.4,35.2C533.7,294.8,533.4,294.9,532.8,294.9z M505.9,273.7
		c9.4,0,18.8,0,28.2,0c2.5,0,4.4-1,5.5-3.3c1.6-3.6-1.1-7.5-5.3-7.5c-8.4,0-16.9,0-25.3,0c-10.5,0-21,0-31.4,0c-2.5,0-4.3,1-5.3,3.2
		c-1.7,3.6,1,7.5,5.1,7.6C486.9,273.7,496.4,273.7,505.9,273.7z M505.9,230.5c9.3,0,18.7,0,28,0c3.7,0,6.1-2.2,6.1-5.4
		c0-3.2-2.4-5.4-6.1-5.4c-7.2,0-14.5,0-21.7,0c-11.6,0-23.1,0-34.7,0c-2.5,0-4.3,1-5.4,3.2c-1.7,3.7,1,7.6,5.3,7.6
		C487,230.6,496.4,230.5,505.9,230.5z M505.9,252.1c9.3,0,18.7,0,28,0c3.7,0,6.1-2.2,6.1-5.4c0-3.2-2.4-5.4-6.1-5.4
		c-7.1,0-14.2,0-21.4,0c-11.7,0-23.3,0-35,0c-2.5,0-4.3,1-5.4,3.2c-1.7,3.7,1,7.6,5.3,7.6C487,252.1,496.4,252.1,505.9,252.1z"/>
	<path d="M868.6,363.7c0.3-0.9,0.5-1.8,0.8-2.7c2.1-6.1,7.6-10.3,14.2-10.8c6.1-0.4,12.2,3.1,14.9,8.8c0.6,1.3,1.3,1.7,2.7,1.7
		c5.9-0.1,11.8,0,17.7,0c0.6,0,1.2,0,2.2,0c-25.1-16.7-37-39.8-36.4-69.6c-1.6,0-3.1,0-4.5,0c-3.8-0.1-5.9-2.2-5.9-5.9
		c0-6.7,0-13.3,0-20c0-3.8,2.1-5.8,5.9-5.8c1.5,0,2.9,0,4.5,0c0-9.5,0-18.9,0-28.5c-1.5,0-3,0-4.5,0c-3.6,0-5.8-2.2-5.8-5.7
		c0-6.8,0-13.6,0-20.4c0-3.5,2.2-5.7,5.7-5.7c6.8,0,13.6,0,20.4,0c3.4,0,5.6,2.2,5.7,5.6c0.1,6.8,0.1,13.7,0,20.5
		c0,3.5-2.3,5.6-5.8,5.6c-1.5,0-3.1,0-4.7,0c0,9.5,0,18.8,0,28.5c1.5,0,3,0,4.6,0c3.7,0,5.9,2.1,5.9,5.8c0,6.7,0,13.3,0,20
		c0,3.7-2.2,5.8-5.9,5.9c-1.5,0-3,0-4.6,0c-0.8,15.5,2.8,29.6,11.8,42.2c9.1,12.8,21.3,21.1,36.7,25.4c0-1.1,0-2,0-2.9
		c0.1-3.5,2.3-5.7,5.8-5.7c6.7,0,13.3,0,20,0c3.8,0,5.9,2.1,6,6c0,0.8,0,1.5,0,2.6c13.5-3.5,24.6-10.4,33.5-20.9
		c11.3-13.4,16-29,15.2-46.7c-1.6,0-3,0-4.5,0c-3.8-0.1-6-2.2-6-6c0-6.6,0-13.2,0-19.8c0-3.8,2.2-5.9,6-5.9c1.4,0,2.8,0,4.4,0
		c0-9.5,0-18.9,0-28.5c-1.5,0-3,0-4.5,0c-3.6,0-5.9-2.2-5.9-5.7c0-6.8,0-13.6,0-20.4c0-3.5,2.3-5.6,5.8-5.7c6.8,0,13.6,0,20.4,0
		c3.4,0,5.6,2.2,5.6,5.6c0,6.8,0,13.7,0,20.5c0,3.5-2.2,5.6-5.8,5.6c-1.5,0-3,0-4.6,0c0,9.5,0,18.8,0,28.5c1.5,0,3,0,4.6,0
		c3.7,0,5.8,2.1,5.8,5.8c0,6.7,0,13.5,0,20.2c0,3.5-2.1,5.7-5.6,5.8c-1.5,0.1-3.1,0-4.8,0c0.7,29.8-11.3,52.9-36.2,69.5
		c0.7,0,1.3,0.1,1.8,0.1c6.1,0,12.1,0,18.2,0c1.2,0,1.8-0.4,2.3-1.4c3.3-6.8,10.6-10.4,17.8-8.6c7.4,1.8,12.4,8.4,12.2,15.9
		c-0.2,7.3-5.6,13.6-12.9,15c-0.3,0.1-0.6,0.2-1,0.3c-1.2,0-2.4,0-3.6,0c-0.3-0.1-0.7-0.3-1-0.3c-5.3-1-9.1-3.9-11.5-8.7
		c-0.6-1.2-1.3-1.5-2.6-1.5c-13.7,0-27.3,0-41,0c-0.6,0-1.3,0-2.1,0c-0.2,4.1,1,8.5-4,10.5c-7.9,0-15.7,0-23.6,0
		c-5.2-1.8-4.1-6.4-4.3-10.4c-0.4-0.1-0.6-0.1-0.9-0.1c-14.2,0-28.4,0-42.7,0c-0.6,0-1.4,0.7-1.7,1.3c-2.3,4.5-5.8,7.3-10.6,8.6
		c-0.7,0.2-1.4,0.4-2,0.5c-1.2,0-2.4,0-3.6,0c-0.3-0.1-0.5-0.3-0.8-0.3c-3.8-0.6-7.1-2.3-9.3-5.4c-1.7-2.4-2.6-5.2-3.9-7.8
		C868.6,366.8,868.6,365.2,868.6,363.7z"/>
	<g>
		<path d="M1538.4,377.9c-1.4,3.1-3.9,4-7.2,4c-56.3-0.1-112.6,0-168.9-0.1c-0.8,0-1.7,0-2.5-0.1c-2.6-0.6-4.4-3-4.3-5.6
			c0.2-2.7,2.4-4.8,5.2-5c1.9-0.1,3.8,0,5.9,0c0-0.8,0-1.5,0-2.2c0-15,0-30,0-45c0-4.3,2-6.2,6.3-6.4c6.5-0.3,12.9-0.7,19.4-1.1
			c4-0.3,6.4,1.8,6.4,6c0,15.5,0,30.9,0,46.4c0,0.7,0,1.4,0,2.2c3.6,0,7,0,10.7,0c0-0.7,0-1.4,0-2.1c0-16.5,0-33,0-49.4
			c0-4.5,1.2-5.8,5.4-7c6.2-1.7,12.3-3.5,18.4-5.4c5.1-1.6,8.2,0.5,8.2,5.8c0,18.6,0,37.2,0,55.9c0,0.7,0,1.4,0,2.3
			c3.5,0,7,0,10.7,0c0-0.6,0-1.3,0-2c0-21.7,0-43.4,0-65.1c0-3.2,1.3-5.1,4.1-6.6c6.3-3.4,12.4-7.1,18.5-10.7c0.6-0.3,1.1-0.7,1.7-1
			c3.6-1.9,7.7,0.4,7.9,4.4c0.1,1.3,0,2.6,0,3.9c0,25,0,50,0,75c0,0.7,0,1.4,0,2.2c3.6,0,7,0,10.7,0c0-0.7,0-1.4,0-2.1
			c0-31.4,0-62.8,0-94.2c0-2.5,0.9-4.3,2.7-6.1c6.6-6.8,13-13.7,19.5-20.6c1.3-1.4,2.5-2.5,4.5-2.5c2.9-0.1,5.3,2,5.5,4.9
			c0.1,0.7,0,1.3,0,2c0,38.7,0,77.5,0,116.2c0,0.8,0,1.5,0,2.6c1.3,0,2.6,0.1,3.9,0c3.3-0.3,5.8,0.8,7.2,3.9
			C1538.4,376,1538.4,377,1538.4,377.9z"/>
		<path d="M1538.4,227.2c-0.2,0.4-0.5,0.8-0.7,1.2c-1.2,2.1-3.6,3.1-5.8,2.6c-2.4-0.6-4.1-2.5-4.2-4.9c-0.1-1.2,0-2.5,0-4.2
			c-1.1,1.2-1.9,2.1-2.6,2.9c-7.7,8.6-15.2,17.5-23.2,25.9c-23.3,24.4-51.5,40.5-84.1,48.9c-18.6,4.8-37.6,6.5-56.8,4.8
			c-3.3-0.3-5.5-2.6-5.3-5.7c0.2-3.1,2.9-5.2,6.2-5c41,3.1,78.1-7.6,111.3-31.8c9.6-7,18.1-15,25.9-23.9c7.9-9,15.9-17.9,23.8-26.9
			c0.3-0.4,0.6-0.8,1.2-1.4c-4.3,0-8.4,0-12.4,0c-2.5,0-4.4-1.5-5.2-3.9c-0.7-2.1,0.2-4.5,2.1-5.8c0.5-0.4,1.1-0.7,1.6-1
			c8.1,0,16.2,0,24.3,0c1.7,1,3.3,2,3.6,4.2c0.1,0.7,0.2,1.5,0.3,2.2C1538.4,212.7,1538.4,220,1538.4,227.2z"/>
	</g>
</g>
</svg>
