<?xml version="1.0" encoding="utf-8"?>
<!-- Generator: Adobe Illustrator 26.4.1, SVG Export Plug-In . SVG Version: 6.00 Build 0)  -->
<svg version="1.1" id="Calque_1" xmlns="http://www.w3.org/2000/svg" xmlns:xlink="http://www.w3.org/1999/xlink" x="0px" y="0px"
	 viewBox="0 0 108 106.4" style="enable-background:new 0 0 108 106.4;" xml:space="preserve">
<style type="text/css">
	.st0{fill:#FFFFFF;}
</style>
<g>
	<path class="st0" d="M39.2,21.5c5.3,0,10.6,0,15.9,0c0,0.6-0.4,0.5-0.7,0.6c-0.5,0.1-1.1,0.2-1.6,0.3c-2.7,0.7-3.6,1.8-3.7,4.7
		c0,1.7,0,3.5,0,5.2c0,6.2,0,12.4,0,18.5c0,1.4-0.2,2.8-0.4,4.2c-0.4,2.3-1.6,4.2-3.5,5.7c-1.9,1.5-4.2,2.7-6.4,3.7
		c-0.3,0.1-0.6,0.3-0.8,0s0.2-0.5,0.4-0.6c5.2-2.5,6.9-7.1,7.1-12.4c0.4-8.3,0.3-16.6,0.1-25c0-2.3-0.9-3.2-3.1-4
		C41.5,22.3,40.2,22.4,39.2,21.5z"/>
	<path class="st0" d="M54.7,49.6c4.1,0,8.1,0,12.1,0c0,0.2-0.1,0.3-0.1,0.3c-4.1,0.6-6.8,3.2-9.5,6.1c-2.7,2.9-5.4,5.8-8.1,8.8
		c-0.4,0.4-0.8,0.8-0.2,1.3c4.2,4.4,8,9.3,12.6,13.3c2.4,2.1,5.1,3.8,8.2,4.9c0.2,0.1,0.3,0.2,0.4,0.3c-0.1,0.1-0.1,0.3-0.2,0.3
		c-4.5-0.2-9-0.3-12.3-4.3c-3.7-4.3-7.8-8.3-11.7-12.3c-0.6-0.6-0.7-1,0-1.6c2.7-2.9,5.4-5.8,8.1-8.8c1.2-1.3,2.3-2.7,3.1-4.3
		c1-2,0.5-3-1.7-3.5C55.1,50,54.8,50,54.7,49.6z"/>
</g>
</svg>
