<?xml version="1.0" encoding="utf-8"?>
<!-- Generator: Adobe Illustrator 26.1.0, SVG Export Plug-In . SVG Version: 6.00 Build 0)  -->
<svg version="1.1" id="Calque_1" xmlns="http://www.w3.org/2000/svg" xmlns:xlink="http://www.w3.org/1999/xlink" x="0px" y="0px"
	 viewBox="0 0 108.04 106.43" style="enable-background:new 0 0 108.04 106.43;" xml:space="preserve">
<style type="text/css">
	.st0{fill:#FFFFFF;}
</style>
<g>
	<path class="st0" d="M39.24,21.5c5.29,0,10.58,0,15.88,0c0,0.57-0.38,0.55-0.67,0.62c-0.53,0.13-1.08,0.2-1.61,0.34
		c-2.72,0.73-3.59,1.83-3.65,4.68c-0.04,1.74,0,3.48-0.01,5.21c-0.01,6.17-0.02,12.35-0.05,18.52c-0.01,1.42-0.17,2.82-0.44,4.22
		c-0.44,2.35-1.6,4.25-3.46,5.73c-1.94,1.55-4.15,2.65-6.36,3.73c-0.29,0.14-0.62,0.35-0.85-0.01c-0.23-0.36,0.16-0.46,0.38-0.56
		c5.25-2.46,6.87-7.09,7.12-12.35c0.4-8.31,0.26-16.64,0.1-24.96c-0.05-2.31-0.88-3.19-3.08-3.97
		C41.46,22.31,40.24,22.36,39.24,21.5z"/>
	<path class="st0" d="M54.65,49.59c4.06,0,8.07,0,12.09,0c-0.04,0.16-0.05,0.31-0.08,0.31c-4.07,0.61-6.85,3.25-9.49,6.07
		c-2.71,2.9-5.38,5.85-8.07,8.78c-0.39,0.42-0.78,0.75-0.2,1.35c4.21,4.44,8,9.28,12.6,13.34c2.42,2.14,5.1,3.84,8.15,4.92
		c0.15,0.05,0.29,0.18,0.43,0.26c-0.08,0.14-0.12,0.29-0.16,0.29c-4.52-0.22-8.97-0.35-12.35-4.26c-3.7-4.28-7.75-8.26-11.68-12.35
		c-0.59-0.61-0.65-0.96-0.02-1.63c2.73-2.89,5.4-5.84,8.07-8.78c1.2-1.32,2.32-2.71,3.12-4.32c1-2.03,0.49-3.04-1.71-3.53
		C55.1,50.01,54.8,50.05,54.65,49.59z"/>
</g>
</svg>
