<?xml version="1.0" encoding="utf-8"?>
<!-- Generator: Adobe Illustrator 26.5.0, SVG Export Plug-In . SVG Version: 6.00 Build 0)  -->
<svg version="1.1" id="Calque_1" xmlns="http://www.w3.org/2000/svg" xmlns:xlink="http://www.w3.org/1999/xlink" x="0px" y="0px"
	 viewBox="0 0 118.9 122.6" style="enable-background:new 0 0 118.9 122.6;" xml:space="preserve">
<style type="text/css">
	.st0{fill:#4237DA;}
	.st1{fill:#F6BF01;}
	.st2{fill:#D60000;}
</style>
<g>
	<path class="st0" d="M48.6,6.2V71c0,1.2-1,2.4-2.4,2.4H27c-1.2,0-2.4-1-2.4-2.4v-4.6c0-1.2,1-2.4,2.4-2.4h10.5c1.2,0,2.4-1,2.4-2.4
		V15.1c0-1.2-1-2.4-2.4-2.4h-4.4c-1.2,0-2.4-1-2.4-2.4V6.2c0-1.2,1-2.4,2.4-2.4h13.3C47.6,4,48.6,5,48.6,6.2z"/>
	<path class="st1" d="M90.8,73.4h-4.2c-1,0-1.8-0.6-2.2-1.4l-3-7.7l-2.4-6.3l-1.6-4c-0.4-0.8-1.2-1.4-2.2-1.4h-3
		c-1.2,0-2.4,1-2.4,2.4v16.4c0,1.2-1,2.4-2.4,2.4h-4.6c-1.2,0-2.4-1-2.4-2.4V6.2c0-1.2,1-2.4,2.4-2.4h4.6c1.2,0,2.4,1,2.4,2.4v34.7
		c0,1.2,1,2.4,2.4,2.4l0,0c1,0,2-0.6,2.2-1.6l3-10.9l5-17.8l2-7.1c0.2-1,1.2-1.6,2.2-1.6h4.2c1.6,0,2.6,1.4,2.2,3l-1.6,5.9
		l-6.5,23.4l-2,6.9l-0.2,1l0,0l2.2,5.7l1,2.6l4.6,11.9l2.4,6.1C93.6,71.8,92.4,73.4,90.8,73.4z"/>
	<path class="st2" d="M94.2,80.7v26.5c0,1.2-1,2.4-2.4,2.4H27c-1.2,0-2.4-1-2.4-2.4V80.7c0-1.2,1-2.4,2.4-2.4h4.8
		c1.2,0,2.4,1,2.4,2.4v17.4c0,1.2,1,2.4,2.4,2.4h46.4c1.2,0,2.4-1,2.4-2.4V90c0-1.2-1-2.4-2.4-2.4H42.1c-1.2,0-2.4-1-2.4-2.4v-4.6
		c0-1.2,1-2.4,2.4-2.4h49.7C93.2,78.3,94.2,79.3,94.2,80.7z"/>
</g>
</svg>
